<?xml version="1.0" standalone="no"?>
<!DOCTYPE svg PUBLIC "-//W3C//DTD SVG 20010904//EN"
 "http://www.w3.org/TR/2001/REC-SVG-20010904/DTD/svg10.dtd">
<svg version="1.0" xmlns="http://www.w3.org/2000/svg"
 width="310.000000pt" height="310.000000pt" viewBox="0 0 310.000000 310.000000"
 preserveAspectRatio="xMidYMid meet">
<metadata>
Created by potrace 1.11, written by Peter Selinger 2001-2013
</metadata>
<g transform="translate(0.000000,310.000000) scale(0.100000,-0.100000)"
fill="#000000" stroke="none">
<path d="M261 2320 c-4 -3 -7 -364 -6 -802 l0 -798 587 0 588 0 0 803 0 802
-581 0 c-319 0 -584 -2 -588 -5z m367 -293 c2 -146 0 -187 -10 -188 -68 -4
-241 -2 -244 3 -4 6 -6 130 -5 298 l1 76 128 -1 127 0 3 -188z m317 181 c3 -3
7 -87 8 -187 2 -166 1 -181 -15 -182 -23 -1 -51 -1 -132 0 l-64 1 0 183 c1
100 2 184 4 187 4 8 191 6 199 -2z m373 -180 c3 -212 13 -190 -83 -190 -25 0
-74 1 -109 1 l-64 1 2 188 c2 103 4 187 5 187 0 0 56 0 124 0 l122 0 3 -187z
m-367 -314 c1 -18 1 -110 0 -269 l-1 -125 -290 0 -290 0 -1 33 c0 36 0 206 1
308 l0 66 290 1 c244 0 290 -2 291 -14z m369 -190 l0 -204 -129 0 -128 0 0
204 1 204 128 0 128 0 0 -204z m-690 -504 l0 -190 -130 0 c-128 0 -130 0 -130
23 -1 33 -1 266 -1 315 l1 42 130 0 130 0 0 -190z m690 0 l0 -190 -287 2 -288
3 -1 188 -1 187 288 0 289 0 0 -190z"/>
<path d="M1559 2296 c-1 0 -2 -353 -3 -784 l-1 -783 460 3 c505 5 515 6 641
69 147 74 217 194 210 362 -7 157 -81 273 -215 340 l-68 34 33 18 c78 42 147
137 171 234 38 157 -12 323 -129 425 -94 82 -100 83 -635 83 -254 0 -464 0
-464 -1z m771 -316 c68 -18 111 -89 104 -173 -5 -53 -28 -92 -71 -118 -35 -22
-47 -23 -228 -24 -104 -1 -195 0 -200 2 -7 2 -10 59 -9 161 1 86 2 157 3 158
7 6 375 1 401 -6z m80 -619 c14 -6 37 -28 50 -48 21 -30 25 -48 25 -107 0 -83
-17 -114 -81 -146 -37 -18 -60 -20 -260 -20 l-219 0 0 163 c-1 89 3 165 8 168
18 13 451 4 477 -10z"/>
</g>
</svg>
